<?xml version="1.0"?>
<svg xmlns="http://www.w3.org/2000/svg" xmlns:xlink="http://www.w3.org/1999/xlink" version="1.1"
  xml:space="preserve">
  <defs>
    <symbol id="phone" width="25" height="25" viewBox="0 0 20 15">
      <path d="M9.75562 11.3081L11.0156 10.0481C11.1853 9.88051 11.4 9.76578 11.6337 9.71785C11.8673 9.66992 12.1099 9.69086 12.3319 9.77811L13.8675 10.3912C14.0918 10.4823 14.2842 10.6377 14.4203 10.8379C14.5564 11.0381 14.6303 11.2741 14.6325 11.5162V14.3287C14.6312 14.4934 14.5966 14.6561 14.5307 14.8071C14.4649 14.9581 14.3691 15.0941 14.2493 15.2071C14.1295 15.3201 13.9881 15.4077 13.8335 15.4646C13.6789 15.5214 13.5145 15.5465 13.35 15.5381C2.58937 14.8687 0.418116 5.75623 0.00749108 2.26873C-0.0115704 2.09747 0.00584556 1.92412 0.0585932 1.76007C0.111341 1.59602 0.198225 1.445 0.313529 1.31695C0.428833 1.18889 0.569945 1.0867 0.72758 1.01709C0.885215 0.947491 1.0558 0.912051 1.22812 0.913109H3.94499C4.18743 0.913827 4.42412 0.987059 4.6246 1.12339C4.82508 1.25972 4.9802 1.45291 5.06999 1.67811L5.68312 3.21373C5.77326 3.43484 5.79626 3.6776 5.74924 3.91169C5.70222 4.14579 5.58727 4.36084 5.41874 4.52998L4.15874 5.78998C4.15874 5.78998 4.88437 10.7006 9.75562 11.3081Z" fill="#FC7272" />
    </symbol>
    <symbol id="mail" width="25" height="25" viewBox="0 0 25 18">
      <path d="M18 0H2C0.9 0 0.00999999 0.9 0.00999999 2L0 14C0 15.1 0.9 16 2 16H18C19.1 16 20 15.1 20 14V2C20 0.9 19.1 0 18 0ZM18 4L10 9L2 4V2L10 7L18 2V4Z" fill="#FC7272" />
    </symbol>
    <symbol id="user" width="24" height="24" viewBox="0 0 25 18">
      <path opacity="0.5"
      d="M7.5 9C8.63664 9 9.72673 8.52589 10.5305 7.68198C11.3342 6.83807 11.7857 5.69347 11.7857 4.5C11.7857 3.30653 11.3342 2.16193 10.5305 1.31802C9.72673 0.474106 8.63664 0 7.5 0C6.36336 0 5.27327 0.474106 4.46954 1.31802C3.66581 2.16193 3.21429 3.30653 3.21429 4.5C3.21429 5.69347 3.66581 6.83807 4.46954 7.68198C5.27327 8.52589 6.36336 9 7.5 9ZM5.96987 10.6875C2.67188 10.6875 0 13.493 0 16.9559C0 17.5324 0.445313 18 0.99442 18H14.0056C14.5547 18 15 17.5324 15 16.9559C15 13.493 12.3281 10.6875 9.03013 10.6875H5.96987Z"
      fill="#F22127" />
    </symbol>
    <symbol id="arrow" width="12" height="24" viewBox="0 0 9 9">
      <path d="M1 1L7.96133 4.5L1 8" stroke="#2B3139" stroke-width="1.6" stroke-linecap="round"
      stroke-linejoin="round" fill="none"/>
    </symbol>
    <symbol id="basket" width="23" height="24" viewBox="0 0 30 24">
      <path
        d="M14.7134 4.30248C14.9358 3.86458 14.7681 3.3265 14.3415 3.10013C13.915 2.87376 13.3827 3.04446 13.1603 3.47865L9.76602 10.125H6.64518C5.99987 10.125 5.47852 10.6556 5.47852 11.3125C5.47852 11.9693 5.99987 12.5 6.64518 12.5L8.53737 20.2002C8.79622 21.2578 9.72956 22 10.8014 22H21.1556C22.2275 22 23.1608 21.2578 23.4197 20.2002L25.3118 12.5C25.9572 12.5 26.4785 11.9693 26.4785 11.3125C26.4785 10.6556 25.9572 10.125 25.3118 10.125H22.191L18.7967 3.47865C18.5743 3.04446 18.0457 2.87376 17.6155 3.10013C17.1853 3.3265 17.0212 3.86458 17.2436 4.30248L20.2186 10.125H11.7384L14.7134 4.30248ZM12.4785 14.2812V17.8437C12.4785 18.1703 12.216 18.4375 11.8952 18.4375C11.5743 18.4375 11.3118 18.1703 11.3118 17.8437V14.2812C11.3118 13.9547 11.5743 13.6875 11.8952 13.6875C12.216 13.6875 12.4785 13.9547 12.4785 14.2812ZM15.9785 13.6875C16.2993 13.6875 16.5618 13.9547 16.5618 14.2812V17.8437C16.5618 18.1703 16.2993 18.4375 15.9785 18.4375C15.6577 18.4375 15.3952 18.1703 15.3952 17.8437V14.2812C15.3952 13.9547 15.6577 13.6875 15.9785 13.6875ZM20.6452 14.2812V17.8437C20.6452 18.1703 20.3827 18.4375 20.0618 18.4375C19.741 18.4375 19.4785 18.1703 19.4785 17.8437V14.2812C19.4785 13.9547 19.741 13.6875 20.0618 13.6875C20.3827 13.6875 20.6452 13.9547 20.6452 14.2812Z"
        fill="black"/>
    </symbol>
    <symbol id="white-basket" width="25" height="25" viewBox="0 0 24 24">
      <path
      d="M9.59325 1.23393C9.80951 0.81908 9.64643 0.309313 9.23164 0.094859C8.81685 -0.119595 8.29926 0.0421244 8.083 0.453454L4.78243 6.74996H1.74774C1.12024 6.74996 0.613281 7.2527 0.613281 7.87496C0.613281 8.49723 1.12024 8.99997 1.74774 8.99997L3.5877 16.2949C3.83941 17.2969 4.74697 18 5.78926 18H15.8576C16.8999 18 17.8075 17.2969 18.0592 16.2949L19.8991 8.99997C20.5266 8.99997 21.0336 8.49723 21.0336 7.87496C21.0336 7.2527 20.5266 6.74996 19.8991 6.74996H16.8644L13.5639 0.453454C13.3476 0.0421244 12.8336 -0.119595 12.4152 0.094859C11.9969 0.309313 11.8374 0.81908 12.0536 1.23393L14.9465 6.74996H6.70037L9.59325 1.23393ZM7.42005 10.6875V14.0625C7.42005 14.3719 7.16479 14.625 6.85282 14.625C6.54084 14.625 6.28559 14.3719 6.28559 14.0625V10.6875C6.28559 10.3781 6.54084 10.125 6.85282 10.125C7.16479 10.125 7.42005 10.3781 7.42005 10.6875ZM10.8234 10.125C11.1354 10.125 11.3907 10.3781 11.3907 10.6875V14.0625C11.3907 14.3719 11.1354 14.625 10.8234 14.625C10.5115 14.625 10.2562 14.3719 10.2562 14.0625V10.6875C10.2562 10.3781 10.5115 10.125 10.8234 10.125ZM15.3613 10.6875V14.0625C15.3613 14.3719 15.106 14.625 14.794 14.625C14.4821 14.625 14.2268 14.3719 14.2268 14.0625V10.6875C14.2268 10.3781 14.4821 10.125 14.794 10.125C15.106 10.125 15.3613 10.3781 15.3613 10.6875Z"
      fill="#FFFEFE" />
    </symbol>
    <symbol id="service-arrow" width="10" height="10" viewBox="0 0 11 10">
      <path
      d="M9.77219 0H3.14945C2.60163 0 2.15774 0.441238 2.15774 0.985493C2.15774 1.52975 2.60163 1.97099 3.14945 1.97099H7.37794L0.991626 8.3177C0.604332 8.70256 0.604331 9.32658 0.991758 9.71145C1.18534 9.90382 1.43921 10 1.69296 10C1.9467 10 2.20058 9.90368 2.39429 9.71132L8.78061 3.36461V7.56675C8.78061 8.11101 9.2245 8.55224 9.77232 8.55224C10.3201 8.55224 10.764 8.11101 10.764 7.56675V0.985493C10.7639 0.441107 10.3199 0 9.77219 0Z"
      fill="#F2584F" />
    </symbol>
    <symbol id="footer-phone" width="24" height="24" viewBox="0 0 32 32">
      <path
      d="M17.0667 8.6582C16.4779 8.6582 16 9.1331 16 9.71823C16 10.3034 16.4779 10.7783 17.0667 10.7783C19.4197 10.7783 21.3333 12.68 21.3333 15.0184C21.3333 15.6035 21.8112 16.0784 22.4 16.0784C22.9888 16.0784 23.4667 15.6035 23.4667 15.0184C23.4667 11.5118 20.5952 8.6582 17.0667 8.6582Z"
      fill="#030303" />
      <path
        d="M17.0667 4.41797C16.4779 4.41797 16 4.89286 16 5.478C16 6.06313 16.4779 6.53803 17.0667 6.53803C21.7728 6.53803 25.6 10.3414 25.6 15.0183C25.6 15.6034 26.0779 16.0783 26.6667 16.0783C27.2555 16.0783 27.7333 15.6034 27.7333 15.0183C27.7333 9.17326 22.9483 4.41797 17.0667 4.41797Z"
        fill="#030303" />
      <path
        d="M17.0667 0.177734C16.4779 0.177734 16 0.652628 16 1.23776C16 1.8229 16.4779 2.29779 17.0667 2.29779C24.1259 2.29779 29.8667 8.00287 29.8667 15.0181C29.8667 15.6033 30.3445 16.0782 30.9333 16.0782C31.5221 16.0782 32 15.6033 32 15.0181C32 6.83472 25.2992 0.177734 17.0667 0.177734Z"
        fill="#030303" />
      <path
        d="M28.8 23.4984C25.7024 23.4984 22.752 22.8285 20.032 21.5077C19.776 21.3805 19.4816 21.3657 19.2149 21.4589C18.9461 21.5522 18.7264 21.7473 18.6027 21.9996L16.9259 25.4489C12.5867 23.0426 8.99413 19.4746 6.57493 15.1624L10.0437 13.4918C10.2997 13.3688 10.4939 13.1504 10.5877 12.8833C10.6795 12.6183 10.6624 12.3257 10.5365 12.0713C9.20747 9.36825 8.53333 6.43621 8.53333 3.35788C8.53333 2.77274 8.05547 2.29785 7.46667 2.29785H1.06667C0.477867 2.29785 0 2.77274 0 3.35788C0 19.1396 12.9195 31.9787 28.8 31.9787C29.3888 31.9787 29.8667 31.5038 29.8667 30.9187V24.5585C29.8667 23.9733 29.3888 23.4984 28.8 23.4984Z"
        fill="#030303" />
    </symbol>
    <symbol id="footer-map" width="100%" height="100%" viewBox="0 0 384 512">
      <path d="M215.7 499.2C267 435 384 279.4 384 192C384 86 298 0 192 0S0 86 0 192c0 87.4 117 243 168.3 307.2c12.3 15.3 35.1 15.3 47.4 0zM192 128a64 64 0 1 1 0 128 64 64 0 1 1 0-128z"/>
    </symbol>
    <symbol id="footer-mail" width="24" height="24" viewBox="0 0 32 34">
      <path
      d="M3.07137 12.0924C3.47616 12.3762 4.69637 13.2193 6.73204 14.6212C8.76778 16.0231 10.3273 17.1025 11.4106 17.8595C11.5297 17.9425 11.7825 18.1229 12.1694 18.4009C12.5563 18.6791 12.8778 18.9039 13.1336 19.0754C13.3896 19.2468 13.6991 19.4392 14.0623 19.652C14.4255 19.8647 14.7678 20.0247 15.0892 20.1306C15.4107 20.2374 15.7083 20.2903 15.982 20.2903H16H16.018C16.2918 20.2903 16.5895 20.2374 16.911 20.1306C17.2323 20.0247 17.5749 19.8646 17.9377 19.652C18.3007 19.4389 18.6102 19.2468 18.8662 19.0754C19.1222 18.9039 19.4435 18.6791 19.8305 18.4009C20.2173 18.1226 20.4705 17.9425 20.5895 17.8595C21.6845 17.1025 24.4705 15.1799 28.9465 12.092C29.8155 11.4889 30.5416 10.7612 31.1248 9.90932C31.7085 9.05783 32 8.16458 32 7.23006C32 6.44912 31.7171 5.78063 31.1516 5.22464C30.5861 4.66853 29.9164 4.39062 29.1428 4.39062H2.85702C1.94042 4.39062 1.23503 4.69818 0.740979 5.31328C0.246993 5.9285 0 6.6975 0 7.62022C0 8.36553 0.327489 9.1732 0.982155 10.0427C1.63676 10.9123 2.33339 11.5956 3.07137 12.0924Z"
      fill="black" />
    <path
      d="M30.214 13.9911C26.3097 16.6173 23.345 18.6583 21.3215 20.1136C20.6429 20.6103 20.0925 20.998 19.6697 21.2759C19.247 21.5539 18.6847 21.8378 17.9822 22.1275C17.28 22.4177 16.6255 22.5623 16.0182 22.5623H16H15.9821C15.375 22.5623 14.7201 22.4177 14.0178 22.1275C13.3156 21.8378 12.753 21.5539 12.3304 21.2759C11.9079 20.998 11.3572 20.6103 10.6787 20.1136C9.07149 18.9424 6.11321 16.9013 1.80375 13.9911C1.12501 13.5418 0.523819 13.0269 0 12.4473V26.5372C0 27.3185 0.279641 27.9866 0.839237 28.5427C1.39871 29.0989 2.07145 29.377 2.85721 29.377H29.143C29.9286 29.377 30.6012 29.0989 31.1608 28.5427C31.7205 27.9865 32 27.3186 32 26.5372V12.4473C31.488 13.0149 30.893 13.5298 30.214 13.9911Z"
      fill="black" />
    </symbol>
    <symbol id="footer-time" width="24" height="24" viewBox="0 0 30 32">
      <path fill-rule="evenodd" clip-rule="evenodd"
      d="M15.9992 29.0071C23.0685 29.0071 28.7992 23.312 28.7992 16.2868C28.7992 9.2615 23.0685 3.56641 15.9992 3.56641C8.92997 3.56641 3.19922 9.2615 3.19922 16.2868C3.19922 23.312 8.92997 29.0071 15.9992 29.0071ZM16.9992 9.92658C16.9992 9.3743 16.5515 8.92658 15.9992 8.92658C15.4469 8.92658 14.9992 9.3743 14.9992 9.92658V16.2868C14.9992 16.5531 15.1054 16.8084 15.2943 16.9961L19.8198 21.4934C20.2115 21.8827 20.8447 21.8807 21.234 21.489C21.6233 21.0972 21.6213 20.4641 21.2296 20.0748L16.9992 15.8707V9.92658Z"
      fill="black" />
    </symbol>
    <symbol id="map" width="15" height="20" viewBox="0 0 450 450">
      <path fill="#FC7272"
      d="M215.7 499.2C267 435 384 279.4 384 192C384 86 298 0 192 0S0 86 0 192c0 87.4 117 243 168.3 307.2c12.3 15.3 35.1 15.3 47.4 0zM192 128a64 64 0 1 1 0 128 64 64 0 1 1 0-128z" />
    </symbol>
    <symbol id="trash" width="24" height="24" viewBox="0 0 10 10">
      <path d="M3.01786 0.345703C3.13839 0.132813 3.38616 0 3.65625 0H6.34375C6.61384 0 6.86161 0.132813 6.98214 0.345703L7.14286 0.625H9.28571C9.6808 0.625 10 0.904297 10 1.25C10 1.5957 9.6808 1.875 9.28571 1.875H0.714286C0.319196 1.875 0 1.5957 0 1.25C0 0.904297 0.319196 0.625 0.714286 0.625H2.85714L3.01786 0.345703ZM0.714286 2.5H9.28571V8.75C9.28571 9.43945 8.64509 10 7.85714 10H2.14286C1.35491 10 0.714286 9.43945 0.714286 8.75V2.5ZM2.85714 3.75C2.66071 3.75 2.5 3.89062 2.5 4.0625V8.4375C2.5 8.60938 2.66071 8.75 2.85714 8.75C3.05357 8.75 3.21429 8.60938 3.21429 8.4375V4.0625C3.21429 3.89062 3.05357 3.75 2.85714 3.75ZM5 3.75C4.80357 3.75 4.64286 3.89062 4.64286 4.0625V8.4375C4.64286 8.60938 4.80357 8.75 5 8.75C5.19643 8.75 5.35714 8.60938 5.35714 8.4375V4.0625C5.35714 3.89062 5.19643 3.75 5 3.75ZM7.14286 3.75C6.94643 3.75 6.78571 3.89062 6.78571 4.0625V8.4375C6.78571 8.60938 6.94643 8.75 7.14286 8.75C7.33929 8.75 7.5 8.60938 7.5 8.4375V4.0625C7.5 3.89062 7.33929 3.75 7.14286 3.75Z" fill="#ED2228"/>
    </symbol>
  </defs>
</svg>