<svg width="24" height="24" viewBox="0 0 24 24" fill="none" xmlns="http://www.w3.org/2000/svg">
<path d="M5.00018 4.99979C5.00027 4.80681 4.94452 4.61792 4.83965 4.45592C4.73478 4.29392 4.58528 4.16572 4.40918 4.08679C4.55318 3.97379 4.72718 3.89679 4.91918 3.86879L15.7172 2.32579C16.0009 2.28524 16.29 2.30613 16.5649 2.38704C16.8398 2.46794 17.0941 2.60699 17.3106 2.79474C17.5271 2.9825 17.7007 3.21459 17.8197 3.47529C17.9386 3.73599 18.0002 4.01922 18.0002 4.30579V5.12579C17.6735 5.04187 17.3375 4.99953 17.0002 4.99979H5.00018ZM9.75018 12.9998C9.75018 12.4031 9.98723 11.8308 10.4092 11.4088C10.8311 10.9868 11.4034 10.7498 12.0002 10.7498C12.5969 10.7498 13.1692 10.9868 13.5912 11.4088C14.0131 11.8308 14.2502 12.4031 14.2502 12.9998C14.2502 13.5965 14.0131 14.1688 13.5912 14.5908C13.1692 15.0127 12.5969 15.2498 12.0002 15.2498C11.4034 15.2498 10.8311 15.0127 10.4092 14.5908C9.98723 14.1688 9.75018 13.5965 9.75018 12.9998Z" fill="#7A7A7A"/>
<path fill-rule="evenodd" clip-rule="evenodd" d="M18 6.17C19.165 6.583 20 7.694 20 9V19C20 19.7956 19.6839 20.5587 19.1213 21.1213C18.5587 21.6839 17.7956 22 17 22H7C6.20435 22 5.44129 21.6839 4.87868 21.1213C4.31607 20.5587 4 19.7956 4 19V5C4 5.26522 4.10536 5.51957 4.29289 5.70711C4.48043 5.89464 4.73478 6 5 6H17C17.35 6 17.687 6.06 18 6.17ZM12 9.25C11.0054 9.25 10.0516 9.64509 9.34835 10.3483C8.64509 11.0516 8.25 12.0054 8.25 13C8.25 13.9946 8.64509 14.9484 9.34835 15.6517C10.0516 16.3549 11.0054 16.75 12 16.75C12.9946 16.75 13.9484 16.3549 14.6517 15.6517C15.3549 14.9484 15.75 13.9946 15.75 13C15.75 12.0054 15.3549 11.0516 14.6517 10.3483C13.9484 9.64509 12.9946 9.25 12 9.25ZM10 18.25C9.80109 18.25 9.61032 18.329 9.46967 18.4697C9.32902 18.6103 9.25 18.8011 9.25 19C9.25 19.1989 9.32902 19.3897 9.46967 19.5303C9.61032 19.671 9.80109 19.75 10 19.75H14C14.1989 19.75 14.3897 19.671 14.5303 19.5303C14.671 19.3897 14.75 19.1989 14.75 19C14.75 18.8011 14.671 18.6103 14.5303 18.4697C14.3897 18.329 14.1989 18.25 14 18.25H10Z" fill="#7A7A7A"/>
</svg>
