<svg width="25" height="24" viewBox="0 0 25 24" fill="none" xmlns="http://www.w3.org/2000/svg">
<g id="mdi:password-outline">
<path id="Vector" opacity="0.5" d="M12.4165 17C11.8861 17 11.3774 16.7893 11.0023 16.4142C10.6272 16.0391 10.4165 15.5304 10.4165 15C10.4165 13.89 11.3065 13 12.4165 13C12.9469 13 13.4556 13.2107 13.8307 13.5858C14.2058 13.9609 14.4165 14.4696 14.4165 15C14.4165 15.5304 14.2058 16.0391 13.8307 16.4142C13.4556 16.7893 12.9469 17 12.4165 17ZM18.4165 20V10H6.4165V20H18.4165ZM18.4165 8C18.9469 8 19.4556 8.21071 19.8307 8.58579C20.2058 8.96086 20.4165 9.46957 20.4165 10V20C20.4165 20.5304 20.2058 21.0391 19.8307 21.4142C19.4556 21.7893 18.9469 22 18.4165 22H6.4165C5.88607 22 5.37736 21.7893 5.00229 21.4142C4.62722 21.0391 4.4165 20.5304 4.4165 20V10C4.4165 8.89 5.3065 8 6.4165 8H7.4165V6C7.4165 4.67392 7.94329 3.40215 8.88097 2.46447C9.81865 1.52678 11.0904 1 12.4165 1C13.0731 1 13.7233 1.12933 14.3299 1.3806C14.9365 1.63188 15.4877 2.00017 15.952 2.46447C16.4163 2.92876 16.7846 3.47995 17.0359 4.08658C17.2872 4.69321 17.4165 5.34339 17.4165 6V8H18.4165ZM12.4165 3C11.6209 3 10.8578 3.31607 10.2952 3.87868C9.73257 4.44129 9.4165 5.20435 9.4165 6V8H15.4165V6C15.4165 5.20435 15.1004 4.44129 14.5378 3.87868C13.9752 3.31607 13.2122 3 12.4165 3Z" fill="black"/>
</g>
</svg>
