<svg width="15" height="16" viewBox="0 0 15 16" fill="none" xmlns="http://www.w3.org/2000/svg">
<path d="M9.75562 11.3081L11.0156 10.0481C11.1853 9.88051 11.4 9.76578 11.6337 9.71785C11.8673 9.66992 12.1099 9.69086 12.3319 9.77811L13.8675 10.3912C14.0918 10.4823 14.2842 10.6377 14.4203 10.8379C14.5564 11.0381 14.6303 11.2741 14.6325 11.5162V14.3287C14.6312 14.4934 14.5966 14.6561 14.5307 14.8071C14.4649 14.9581 14.3691 15.0941 14.2493 15.2071C14.1295 15.3201 13.9881 15.4077 13.8335 15.4646C13.6789 15.5214 13.5145 15.5465 13.35 15.5381C2.58937 14.8687 0.418116 5.75623 0.00749108 2.26873C-0.0115704 2.09747 0.00584556 1.92412 0.0585932 1.76007C0.111341 1.59602 0.198225 1.445 0.313529 1.31695C0.428833 1.18889 0.569945 1.0867 0.72758 1.01709C0.885215 0.947491 1.0558 0.912051 1.22812 0.913109H3.94499C4.18743 0.913827 4.42412 0.987059 4.6246 1.12339C4.82508 1.25972 4.9802 1.45291 5.06999 1.67811L5.68312 3.21373C5.77326 3.43484 5.79626 3.6776 5.74924 3.91169C5.70222 4.14579 5.58727 4.36084 5.41874 4.52998L4.15874 5.78998C4.15874 5.78998 4.88437 10.7006 9.75562 11.3081Z" fill="#FC7272"/>
</svg>
