<svg width="26" height="27" viewBox="0 0 26 27" fill="none" xmlns="http://www.w3.org/2000/svg">
<path d="M21.0518 10.9687C21.0518 13.3893 20.2992 15.6252 19.0315 17.4393L25.4256 24.1207C26.057 24.7799 26.057 25.8504 25.4256 26.5096C24.7943 27.1687 23.769 27.1687 23.1377 26.5096L16.7435 19.8281C15.0061 21.157 12.8646 21.9375 10.5464 21.9375C4.74318 21.9375 0.0410156 17.0279 0.0410156 10.9687C0.0410156 4.90957 4.74318 0 10.5464 0C16.3496 0 21.0518 4.90957 21.0518 10.9687ZM10.5464 18.5625C11.5015 18.5625 12.4472 18.3661 13.3296 17.9845C14.212 17.6028 15.0138 17.0435 15.6891 16.3383C16.3645 15.6332 16.9002 14.7961 17.2657 13.8748C17.6312 12.9534 17.8193 11.966 17.8193 10.9687C17.8193 9.97152 17.6312 8.98406 17.2657 8.06275C16.9002 7.14143 16.3645 6.3043 15.6891 5.59916C15.0138 4.89401 14.212 4.33466 13.3296 3.95304C12.4472 3.57142 11.5015 3.375 10.5464 3.375C9.59129 3.375 8.64554 3.57142 7.76315 3.95304C6.88075 4.33466 6.07899 4.89401 5.40363 5.59916C4.72828 6.3043 4.19256 7.14143 3.82706 8.06275C3.46156 8.98406 3.27344 9.97152 3.27344 10.9687C3.27344 11.966 3.46156 12.9534 3.82706 13.8748C4.19256 14.7961 4.72828 15.6332 5.40363 16.3383C6.07899 17.0435 6.88075 17.6028 7.76315 17.9845C8.64554 18.3661 9.59129 18.5625 10.5464 18.5625Z" fill="black"/>
</svg>
